<?xml version="1.0" standalone="no"?><!DOCTYPE svg PUBLIC "-//W3C//DTD SVG 1.1//EN" "http://www.w3.org/Graphics/SVG/1.1/DTD/svg11.dtd"><svg t="1526895193139" class="icon" style="" viewBox="0 0 4277 1024" version="1.1" xmlns="http://www.w3.org/2000/svg" p-id="2856" xmlns:xlink="http://www.w3.org/1999/xlink" width="267.3125" height="64"><defs><style type="text/css"></style></defs><path d="M1295.310452 272.251871a29.068387 29.068387 0 0 0-29.10142 29.084903v463.607742a29.068387 29.068387 0 0 0 29.084903 29.084903h0.016517a29.068387 29.068387 0 0 0 29.084903-29.084903v-463.607742a29.068387 29.068387 0 0 0-29.084903-29.084903M1793.502968 272.251871H1442.221419a18.498065 18.498065 0 1 0 0 36.996129h146.547613v455.696516a29.068387 29.068387 0 0 0 29.084903 29.084903h0.016517a29.068387 29.068387 0 0 0 29.084903-29.084903v-455.68h146.547613a18.498065 18.498065 0 1 0 0-37.012645M2182.474323 757.03329h-211.736775V544.619355h194.163613a18.498065 18.498065 0 1 0 0-36.996129h-194.163613v-198.35871h205.724904a18.498065 18.498065 0 1 0 0-36.996129h-238.674581c-13.939613 0-25.236645 11.297032-25.236645 25.253161v471.287742c0 13.956129 11.297032 25.236645 25.236645 25.236645h244.686452a18.498065 18.498065 0 1 0 0-37.012645M2564.541935 757.03329h-197.698064V301.336774c0-16.070194-13.031226-29.084903-29.084903-29.084903h-0.016516a29.068387 29.068387 0 0 0-29.10142 29.084903v457.232516c0 19.588129 15.905032 35.460129 35.476645 35.460129h220.407742a18.498065 18.498065 0 1 0 0.016516-36.996129M2936.187871 757.03329h-197.714581V301.336774c0-16.070194-13.031226-29.084903-29.084903-29.084903h-0.016516a29.068387 29.068387 0 0 0-29.084903 29.084903v457.232516c0 19.588129 15.888516 35.460129 35.460129 35.460129h220.424258a18.498065 18.498065 0 0 0 0.016516-36.996129M3732.413935 300.742194c-30.93471-24.163097-74.801548-36.269419-131.66658-36.26942-56.881548 0-100.682323 12.106323-131.435355 36.26942-30.786065 24.196129-46.146065 58.599226-46.146065 103.242322v252.382968c0 46.625032 15.36 82.531097 46.146065 107.701677 30.753032 25.154065 74.553806 37.722839 131.435355 37.722839 56.848516 0 100.731871-12.568774 131.66658-37.722839s46.426839-61.060129 46.426839-107.701677V403.984516c0-44.643097-15.492129-79.046194-46.426839-103.242322m-11.792516 356.005161c0 36.764903-9.777548 63.983484-29.316129 81.589677-19.571613 17.639226-49.763097 26.475355-90.541419 26.475355-40.481032 0-70.490839-8.819613-90.045936-26.475355-19.571613-17.606194-29.349161-44.84129-29.349161-81.589677v-252.366452c0-35.03071 9.794065-60.928 29.349161-77.708387s49.564903-25.170581 90.045936-25.170581c40.794839 0 70.986323 8.390194 90.541419 25.170581 19.555097 16.780387 29.316129 42.677677 29.316129 77.708387v252.366452zM4228.442839 272.251871h-0.495484c-15.805935 0-28.605935 12.8-28.605936 28.605935V677.491613c0 29.596903-9.612387 51.546839-28.820645 65.866322-19.224774 14.286452-48.920774 21.454452-89.054968 21.454452-40.117677 0-69.879742-7.168-89.286193-21.454452-19.406452-14.319484-29.101419-36.269419-29.101419-65.866322V300.857806c0-15.805935-12.8-28.605935-28.58942-28.605935h-0.990968a28.572903 28.572903 0 0 0-28.572903 28.605935v384.016517c0 37.491613 15.211355 66.361806 45.650581 86.561032 30.406194 20.26529 73.893161 30.356645 130.411355 30.356645 56.518194 0 100.005161-10.091355 130.427871-30.356645 30.42271-20.215742 45.650581-49.085935 45.65058-86.561032V300.857806a28.638968 28.638968 0 0 0-28.622451-28.605935M3322.830452 269.345032a23.33729 23.33729 0 0 0-32.024775 8.010323l-135.201032 226.072774-0.379871 0.033032-11.313548 18.877936-0.066065 0.478968-5.813677-10.388646H3138.064516l-0.528516-0.908387-3.418839-6.094451-0.231226 0.033032-135.960774-227.361032a23.188645 23.188645 0 1 0-39.770838 23.84929l128.710193 214.561032v0.016516l1.618581 2.675613 0.379871 0.644129 26.012903 42.908904v202.206967c0 16.070194 13.031226 29.101419 29.084903 29.10142h0.016516c16.070194 0 29.084903-13.031226 29.084904-29.10142V563.860645l26.029419-43.239226 0.198193 0.033033 131.567484-219.284646a23.403355 23.403355 0 0 0-8.026838-32.024774M502.139871 1001.604129C232.712258 1001.604129 13.510194 782.402065 13.510194 512.974452c0-269.444129 219.202065-488.629677 488.629677-488.629678s488.629677 219.185548 488.629677 488.629678c0 269.411097-219.202065 488.629677-488.629677 488.629677" fill="#3386FF" p-id="2857"></path><path d="M760.600774 567.444645V351.463226s-46.905806-14.666323-104.398451-10.619871c-93.778581 6.622968-156.506839 46.492903-156.506839 46.492903s-61.687742-40.068129-142.63329-45.683613c-53.710452-3.716129-117.115871 8.621419-117.115871 8.62142v217.17058c0 143.772903 116.554323 260.327226 260.327225 260.327226 26.673548 0 52.405677-4.029935 76.634839-11.47871l4.641032-1.024 110.459871 46.228645-24.87329-94.241032a259.831742 259.831742 0 0 0 93.464774-199.812129M760.832 255.372387c-149.388387-26.178065-234.149161 5.582452-264.076387 20.77729-110.311226-48.739097-211.852387-29.828129-257.469936-16.582193v49.168516c27.548903-9.463742 134.936774-39.869935 248.386065 14.765419l12.354064 5.978839 11.247484-7.878193c0.759742-0.561548 76.056774-51.001806 249.55871-18.481549v-47.748129z" fill="#FFFFFF" p-id="2858"></path><path d="M500.075355 724.347871h-3.005936a29.662968 29.662968 0 0 1-29.662967-29.662968v-150.907871c0-16.384 13.278968-29.662968 29.662967-29.662967h3.005936c16.384 0 29.662968 13.278968 29.662968 29.662967v150.907871c0 16.400516-13.262452 29.662968-29.662968 29.662968M533.636129 465.523613a35.063742 35.063742 0 1 1-70.127484 0 35.063742 35.063742 0 0 1 70.127484 0" fill="#3386FF" p-id="2859"></path></svg>